<?xml version="1.0" encoding="UTF-8" standalone="no"?>
<!-- Created with Inkscape (http://www.inkscape.org/) -->

<svg
   xmlns:dc="http://purl.org/dc/elements/1.1/"
   xmlns:cc="http://creativecommons.org/ns#"
   xmlns:rdf="http://www.w3.org/1999/02/22-rdf-syntax-ns#"
   xmlns:svg="http://www.w3.org/2000/svg"
   xmlns="http://www.w3.org/2000/svg"
   xmlns:xlink="http://www.w3.org/1999/xlink"
   xmlns:sodipodi="http://sodipodi.sourceforge.net/DTD/sodipodi-0.dtd"
   xmlns:inkscape="http://www.inkscape.org/namespaces/inkscape"
   width="744.09448819"
   height="1052.3622047"
   id="svg2"
   version="1.1"
   inkscape:version="0.48.0 r9654"
   sodipodi:docname="limenet02.svg">
  <defs
     id="defs4">
    <linearGradient
       gradientUnits="userSpaceOnUse"
       y2="848.07642"
       x2="531.42859"
       y1="722.36212"
       x1="528.57141"
       id="linearGradient3907"
       xlink:href="#linearGradient3901"
       inkscape:collect="always" />
    <linearGradient
       id="linearGradient3901"
       inkscape:collect="always">
      <stop
         id="stop3903"
         offset="0"
         style="stop-color:#ffffff;stop-opacity:1;" />
      <stop
         id="stop3905"
         offset="1"
         style="stop-color:#ffffff;stop-opacity:0;" />
    </linearGradient>
  </defs>
  <sodipodi:namedview
     id="base"
     pagecolor="#ffffff"
     bordercolor="#666666"
     borderopacity="1.0"
     inkscape:pageopacity="0.0"
     inkscape:pageshadow="2"
     inkscape:zoom="0.49497475"
     inkscape:cx="536.08228"
     inkscape:cy="1163.965"
     inkscape:document-units="px"
     inkscape:current-layer="layer1"
     showgrid="false"
     inkscape:window-width="1280"
     inkscape:window-height="738"
     inkscape:window-x="-8"
     inkscape:window-y="-8"
     inkscape:window-maximized="1"
     showguides="true"
     inkscape:guide-bbox="true" />
  <metadata
     id="metadata7">
    <rdf:RDF>
      <cc:Work
         rdf:about="">
        <dc:format>image/svg+xml</dc:format>
        <dc:type
           rdf:resource="http://purl.org/dc/dcmitype/StillImage" />
        <dc:title />
      </cc:Work>
    </rdf:RDF>
  </metadata>
  <g
     inkscape:label="Layer 1"
     inkscape:groupmode="layer"
     id="layer1">
    <rect
       style="fill:#323333;fill-opacity:1;stroke:none"
       id="rect3765"
       width="3074.2856"
       height="677.14288"
       x="-328.1188"
       y="-253.3521"
       inkscape:export-filename="C:\Users\Marosh\Desktop\rect3847b.png"
       inkscape:export-xdpi="30.143539"
       inkscape:export-ydpi="30.143539" />
    <g
       id="g3831"
       style="stroke:#333333;stroke-width:30;stroke-miterlimit:4;stroke-dasharray:none;"
       transform="matrix(0.14731243,0.98909001,-0.98909001,0.14731243,-653.0973,-3.17204)">
      <path
         sodipodi:end="0.86786135"
         sodipodi:start="0"
         d="m 234.28571,440.93362 c 0,67.18024 -29.55417,130.95883 -80.80921,174.38815 L 5.7142859,440.93362 z"
         sodipodi:ry="228.57143"
         sodipodi:rx="228.57143"
         sodipodi:cy="440.93362"
         sodipodi:cx="5.7142859"
         id="path3779"
         style="fill:none;stroke:#333333;stroke-width:30;stroke-linecap:round;stroke-linejoin:round;stroke-miterlimit:4;stroke-opacity:1;stroke-dasharray:none"
         sodipodi:type="arc" />
      <path
         transform="matrix(0.65005603,0.75988628,-0.75988628,0.65005603,334.71123,152.42924)"
         sodipodi:type="arc"
         style="fill:none;stroke:#333333;stroke-width:30;stroke-linecap:round;stroke-linejoin:round;stroke-miterlimit:4;stroke-opacity:1;stroke-dasharray:none"
         id="path3781"
         sodipodi:cx="5.7142859"
         sodipodi:cy="440.93362"
         sodipodi:rx="228.57143"
         sodipodi:ry="228.57143"
         d="m 234.28571,440.93362 c 0,67.18024 -29.55417,130.95883 -80.80921,174.38815 L 5.7142859,440.93362 z"
         sodipodi:start="0"
         sodipodi:end="0.86786135" />
      <path
         sodipodi:end="0.86786135"
         sodipodi:start="0"
         d="m 234.28571,440.93362 c 0,67.18024 -29.55417,130.95883 -80.80921,174.38815 L 5.7142859,440.93362 z"
         sodipodi:ry="228.57143"
         sodipodi:rx="228.57143"
         sodipodi:cy="440.93362"
         sodipodi:cx="5.7142859"
         id="path3783"
         style="fill:none;stroke:#333333;stroke-width:30;stroke-linecap:round;stroke-linejoin:round;stroke-miterlimit:4;stroke-opacity:1;stroke-dasharray:none"
         sodipodi:type="arc"
         transform="matrix(-0.16155576,0.98686359,-0.98686359,-0.16155576,435.62532,507.61029)" />
      <path
         transform="matrix(-0.87400255,0.48592132,-0.48592132,-0.87400255,218.93011,823.93286)"
         sodipodi:type="arc"
         style="fill:none;stroke:#333333;stroke-width:30;stroke-linecap:round;stroke-linejoin:round;stroke-miterlimit:4;stroke-opacity:1;stroke-dasharray:none"
         id="path3785"
         sodipodi:cx="5.7142859"
         sodipodi:cy="440.93362"
         sodipodi:rx="228.57143"
         sodipodi:ry="228.57143"
         d="m 234.28571,440.93362 c 0,67.18024 -29.55417,130.95883 -80.80921,174.38815 L 5.7142859,440.93362 z"
         sodipodi:start="0"
         sodipodi:end="0.86786135" />
    </g>
    <text
       xml:space="preserve"
       style="font-size:144px;font-style:normal;font-weight:normal;line-height:125%;letter-spacing:0px;word-spacing:0px;fill:#ffffff;fill-opacity:1;stroke:none;font-family:Sans"
       x="226.16684"
       y="38.076469"
       id="text3823"
       sodipodi:linespacing="125%"><tspan
         sodipodi:role="line"
         id="tspan3825"
         x="226.16684"
         y="38.076469" /></text>
    <rect
       y="418.07645"
       x="-370.97598"
       height="677.14288"
       width="1791.4286"
       id="rect3847"
       style="fill:#ffffff;stroke:none"
       inkscape:export-xdpi="30.143539"
       inkscape:export-ydpi="30.143539" />
    <path
       style="font-size:397.08132935px;font-style:normal;font-weight:normal;line-height:125%;letter-spacing:0px;word-spacing:0px;fill:#323333;fill-opacity:1;stroke:none;font-family:Sans"
       d="m -134.0876,650.45094 0,169.8437 c 0,29.7295 8.0032,52.9798 24.0313,69.7187 16.028,16.739 38.3983,25.0938 67.0937,25.0938 l 20.9376,0 0,-76.7812 -4.0626,0 c -11.6333,0 -19.4327,-2.0221 -23.375,-6.0938 -3.9424,-4.0715 -5.9063,-12.2516 -5.9062,-24.5312 l 0,-157.25 z m 1131.3751,0 0,158.8124 c 0,27.5321 5.54,49.607 16.6562,66.2813 8.7895,13.0551 20.4584,23.405 35,31.0313 14.5415,7.6262 30.0216,11.4374 46.4375,11.4374 1.8095,0 4.5952,-0.058 8.3438,-0.1874 l 0,-76.1876 c -12.926,10e-5 -21.8092,-2.9333 -26.6563,-8.75 -4.8473,-5.8165 -7.2813,-16.3994 -7.2812,-31.7812 l 32.5937,0 0,-76.5938 -32.5937,0 0,-74.0624 z m -521.87505,67.0937 c -28.69541,2e-4 -52.91318,9.7634 -72.625,29.2813 -19.71195,19.5181 -29.56255,43.4113 -29.56245,71.7187 -1e-4,28.4369 9.7632,52.3031 29.2812,71.5625 19.51794,19.2595 43.61709,28.875 72.3125,28.875 23.52487,0 44.92786,-7.5643 64.1875,-22.6875 l -41.3125,-49.625 c -6.72156,7.2385 -13.69916,10.8438 -20.9375,10.8437 -8.91892,10e-5 -16.10037,-3.8694 -21.59375,-11.625 -5.49356,-7.7554 -8.25008,-17.8993 -8.25,-30.4374 -8e-5,-12.021 2.8438,-21.8716 8.53125,-29.5626 5.68726,-7.6907 13.04557,-11.5311 22.09375,-11.5312 13.57199,1e-4 21.6647,7.1525 24.25,21.5 l -36.84375,0 c -2.32675,6.2045 -3.5001,12.5372 -3.5,19 -10e-5,4.6534 0.85079,9.7857 2.53125,15.3438 l 109.9375,0 c 0.51682,-6.2044 0.78104,-10.75 0.78125,-13.5938 -2.1e-4,-27.9197 -9.55961,-51.403 -28.625,-70.4688 -19.06576,-19.0654 -42.60735,-28.5935 -70.65625,-28.5937 z m 407.09375,0 c -28.69541,2e-4 -52.91318,9.7634 -72.625,29.2813 -19.7119,19.5181 -29.56251,43.4113 -29.5625,71.7187 -1e-5,28.4369 9.76323,52.3031 29.28125,71.5625 19.51794,19.2595 43.61709,28.875 72.3125,28.875 23.52487,0 44.92786,-7.5643 64.1875,-22.6875 l -41.3125,-49.625 c -6.72156,7.2385 -13.69916,10.8438 -20.9375,10.8437 -8.91892,10e-5 -16.13162,-3.8694 -21.625,-11.625 -5.49356,-7.7554 -8.21883,-17.8993 -8.21875,-30.4374 -8e-5,-12.021 2.8438,-21.8716 8.53125,-29.5626 5.68726,-7.6907 13.04557,-11.5311 22.09375,-11.5312 13.57199,1e-4 21.63345,7.1525 24.21875,21.5 l -36.8125,0 c -2.32675,6.2045 -3.5001,12.5372 -3.5,19 -1e-4,4.6534 0.85079,9.7857 2.53125,15.3438 l 109.9063,0 c 0.5168,-6.2044 0.781,-10.75 0.7812,-13.5938 -2e-4,-27.9197 -9.5284,-51.403 -28.59375,-70.4688 -19.06576,-19.0654 -42.60735,-28.5935 -70.65625,-28.5937 z m -204.0625,0.1875 c -24.17138,2e-4 -40.607,8.6192 -57.28125,25.875 -16.67434,17.2561 -29,38.4823 -29,63.6875 l 0,107.8125 72.5,0 0,-109.1562 c 0,-11.1161 4.51432,-16.6874 13.5625,-16.6876 9.17722,2e-4 13.78113,5.5715 13.78125,16.6876 l 0,109.1562 72.5,0 0,-101.9688 c 0,-27.9196 -6.5076,-49.7033 -19.5625,-65.3437 -16.67447,-20.0348 -38.83887,-30.0623 -66.5,-30.0625 z m -511.4063,0.1875 c -20.8106,2e-4 -38.5188,7.5936 -53.125,22.7813 -14.6062,15.188 -21.9062,33.6597 -21.9062,55.375 l 0,119.0312 72.5,0 0,-104.125 c -1e-4,-14.3475 4.0171,-21.4999 12.0312,-21.5 4.3947,1e-4 7.4737,1.5542 9.2188,4.6562 1.7449,3.1024 2.5936,8.6424 2.5938,16.6563 l 0,104.3125 72.5312,0 0,-104.125 c -2e-4,-14.3475 4.0753,-21.4999 12.2188,-21.5 4.3945,1e-4 7.4131,1.5542 9.0937,4.6562 1.6801,3.1024 2.531,8.6424 2.5313,16.6563 l 0,104.3125 72.5,0 0,-110.9062 c -3e-4,-26.2393 -5.7463,-46.2048 -17.25,-59.9063 -14.6065,-17.5789 -33.9852,-26.3748 -58.1563,-26.375 -19.0012,2e-4 -37.9992,9.0603 -57,27.1563 -17.0622,-18.096 -36.3245,-27.1561 -57.7813,-27.1563 z m -167.75,3.875 0,193.3125 72.5313,0 0,-193.3125 z"
       id="text3849"
       inkscape:connector-curvature="0"
       sodipodi:nodetypes="csssccscscccscssccccccccccsssscccccsccccccccccsssscccccsccccccccccssccsccccscccssccsccccccccccccccccccccc" />
    <path
       inkscape:transform-center-x="-29.875794"
       inkscape:transform-center-y="133.38776"
       transform="matrix(0.58473281,-1.1099797,1.2814334,0.41979184,260.0174,-974.31209)"
       sodipodi:end="0.86786135"
       sodipodi:start="0"
       d="m -1251.4285,422.36218 a 75.714287,75.714287 0 0 1 -26.7681,57.76608 l -48.9462,-57.76608 z"
       sodipodi:ry="75.714287"
       sodipodi:rx="75.714287"
       sodipodi:cy="422.36218"
       sodipodi:cx="-1327.1428"
       id="path3857"
       style="fill:#80ad1e;fill-opacity:1;stroke:#80ad1e;stroke-width:29.99972152999999900;stroke-linecap:round;stroke-linejoin:round;stroke-miterlimit:4;stroke-opacity:1;stroke-dasharray:none"
       sodipodi:type="arc" />
    <text
       xml:space="preserve"
       style="font-size:185.06147766px;font-style:normal;font-weight:normal;line-height:125%;letter-spacing:0px;word-spacing:0px;fill:#000000;fill-opacity:1;stroke:none;font-family:Sans"
       x="1323.3944"
       y="238.99271"
       id="text3865"
       sodipodi:linespacing="125%"
       inkscape:export-filename="E:\wamp\wamp\www\limenet\img\limenet.png"
       inkscape:export-xdpi="10"
       inkscape:export-ydpi="10"><tspan
         sodipodi:role="line"
         id="tspan3867"
         x="1323.3944"
         y="238.99271"
         style="font-style:normal;font-variant:normal;font-weight:normal;font-stretch:normal;fill:#b3b3b3;font-family:Coolvetica Rg;-inkscape-font-specification:Coolvetica Rg">fresh approach</tspan></text>
    <text
       xml:space="preserve"
       style="font-size:331.62585448999999000px;font-style:normal;font-variant:normal;font-weight:normal;font-stretch:normal;line-height:125%;letter-spacing:0px;word-spacing:0px;fill:#333333;fill-opacity:1;stroke:none;font-family:DokChampa;-inkscape-font-specification:DokChampa"
       x="1636.3331"
       y="1020.9764"
       id="text3828"
       sodipodi:linespacing="125%"><tspan
         sodipodi:role="line"
         id="tspan3830"
         x="1636.3331"
         y="1020.9764"
         style="font-style:normal;font-variant:normal;font-weight:normal;font-stretch:normal;font-family:Hobo Std;-inkscape-font-specification:Hobo Std;fill:#333333">Limenet</tspan></text>
    <path
       inkscape:transform-center-x="-29.875794"
       inkscape:transform-center-y="133.38776"
       transform="matrix(0.58473281,-1.1099797,1.2814334,0.41979184,2088.4971,-883.45152)"
       sodipodi:end="0.86786135"
       sodipodi:start="0"
       d="m -1251.4285,422.36218 a 75.714287,75.714287 0 0 1 -26.7681,57.76608 l -48.9462,-57.76608 z"
       sodipodi:ry="75.714287"
       sodipodi:rx="75.714287"
       sodipodi:cy="422.36218"
       sodipodi:cx="-1327.1428"
       id="path3857-0"
       style="fill:#80ad1e;fill-opacity:1;stroke:#80ad1e;stroke-width:29.99972152999999900;stroke-linecap:round;stroke-linejoin:round;stroke-miterlimit:4;stroke-opacity:1;stroke-dasharray:none"
       sodipodi:type="arc"
       inkscape:export-xdpi="12.789461"
       inkscape:export-ydpi="12.789461"
       inkscape:export-filename="E:\wamp\wamp\www\limenet\path3857-0.png" />
    <text
       xml:space="preserve"
       style="font-size:144px;font-style:normal;font-variant:normal;font-weight:normal;font-stretch:normal;line-height:125%;letter-spacing:0px;word-spacing:0px;fill:#000000;fill-opacity:1;stroke:none;font-family:Kristen ITC;-inkscape-font-specification:Kristen ITC"
       x="-325.71429"
       y="-316.20923"
       id="text3834"
       sodipodi:linespacing="125%"><tspan
         sodipodi:role="line"
         id="tspan3836"
         x="-325.71429"
         y="-316.20923"
         style="font-style:normal;font-variant:normal;font-weight:normal;font-stretch:normal;font-family:Bauhaus 93;-inkscape-font-specification:'Bauhaus 93,'">Bauhaus 93</tspan></text>
    <text
       xml:space="preserve"
       style="font-size:405.40997314px;font-style:normal;font-variant:normal;font-weight:normal;font-stretch:normal;line-height:125%;letter-spacing:0px;word-spacing:0px;fill:#000000;fill-opacity:1;stroke:none;font-family:Bauhaus 93;-inkscape-font-specification:Bauhaus 93"
       x="-156.77008"
       y="242.15326"
       id="text3838"
       sodipodi:linespacing="125%"><tspan
         sodipodi:role="line"
         id="tspan3840"
         x="-156.77008"
         y="242.15326"
         style="fill:#f2f2f2"
         dx="0 0 -22.857143 -14.285714 -11.428572 -14.285714 -2.8571424">Limenet</tspan></text>
    <rect
       style="fill:#333333;fill-opacity:1;stroke:none"
       id="rect3842"
       width="177.14285"
       height="120"
       x="-42.857143"
       y="-87.637817" />
    <path
       sodipodi:type="arc"
       style="fill:#80ad1e;fill-opacity:1;stroke:#80ad1e;stroke-width:29.99972153;stroke-linecap:round;stroke-linejoin:round;stroke-miterlimit:4;stroke-opacity:1;stroke-dasharray:none"
       id="path3837"
       sodipodi:cx="-1327.1428"
       sodipodi:cy="422.36218"
       sodipodi:rx="75.714287"
       sodipodi:ry="75.714287"
       d="m -1251.4285,422.36218 a 75.714287,75.714287 0 0 1 -26.7681,57.76608 l -48.9462,-57.76608 z"
       sodipodi:start="0"
       sodipodi:end="0.86786135"
       transform="matrix(0.58473281,-1.1099797,1.2814334,0.41979184,260.0174,-1645.7407)"
       inkscape:transform-center-y="133.38776"
       inkscape:transform-center-x="-29.875794"
       inkscape:export-filename="E:\wamp\wamp\www\limenet\img\limenet.png"
       inkscape:export-xdpi="10.412933"
       inkscape:export-ydpi="10.412933" />
    <rect
       style="fill:#333333;fill-opacity:1;stroke:none"
       id="rect3844"
       width="694.28571"
       height="708.57141"
       x="1451.4286"
       y="-1087.6378"
       ry="120"
       inkscape:export-xdpi="2.074074"
       inkscape:export-ydpi="2.074074" />
    <g
       id="g3899">
      <path
         id="text3846"
         d="M 1613.375 -911.3125 L 1613.375 -644.90625 C 1613.375 -598.27522 1625.9536 -561.84893 1651.0938 -535.59375 C 1676.2338 -509.3385 1711.3034 -496.21875 1756.3125 -496.21875 L 1789.1562 -496.21875 L 1789.1562 -616.625 L 1782.7812 -616.625 C 1764.5342 -616.62488 1752.3085 -619.83222 1746.125 -626.21875 C 1739.9412 -632.60502 1736.8436 -645.42675 1736.8438 -664.6875 L 1736.8438 -911.3125 L 1613.375 -911.3125 z M 1822.5938 -799.40625 L 1822.5938 -496.21875 L 1936.3438 -496.21875 L 1936.3438 -799.40625 L 1822.5938 -799.40625 z "
         style="font-size:622.82702637000000000px;font-style:normal;font-variant:normal;font-weight:normal;font-stretch:normal;line-height:125%;letter-spacing:0px;word-spacing:0px;fill:#f2f2f2;fill-opacity:1;stroke:none;font-family:Bauhaus 93;-inkscape-font-specification:Bauhaus 93" />
      <path
         inkscape:export-ydpi="10.412933"
         inkscape:export-xdpi="10.412933"
         inkscape:export-filename="E:\wamp\wamp\www\limenet\img\limenet.png"
         inkscape:transform-center-x="-38.218125"
         inkscape:transform-center-y="170.63437"
         transform="matrix(0.74801084,-1.4199252,1.6392548,0.53701253,2138.7993,-2957.8751)"
         sodipodi:end="0.86786135"
         sodipodi:start="0"
         d="m -1251.4285,422.36218 a 75.714287,75.714287 0 0 1 -26.7681,57.76608 l -48.9462,-57.76608 z"
         sodipodi:ry="75.714287"
         sodipodi:rx="75.714287"
         sodipodi:cy="422.36218"
         sodipodi:cx="-1327.1428"
         id="path3837-3"
         style="fill:#80ad1e;fill-opacity:1;stroke:#80ad1e;stroke-width:29.99972153;stroke-linecap:round;stroke-linejoin:round;stroke-miterlimit:4;stroke-opacity:1;stroke-dasharray:none"
         sodipodi:type="arc" />
    </g>
    <rect
       inkscape:export-ydpi="2.0740743"
       inkscape:export-xdpi="2.0740743"
       ry="120"
       y="-1088.6589"
       x="2331.4287"
       height="708.57141"
       width="694.28571"
       id="rect3911"
       style="fill:none;fill-opacity:1;stroke:none"
       inkscape:export-filename="C:\Users\Marosh\Desktop\g3917.png" />
    <g
       id="g3917"
       transform="matrix(1.0937748,0,0,1.0937748,-333.67866,158.29403)"
       inkscape:export-xdpi="3.2286367"
       inkscape:export-ydpi="3.2286367">
      <path
         inkscape:export-ydpi="2.9958887"
         inkscape:export-xdpi="2.9958887"
         inkscape:export-filename="E:\wamp\wamp\www\limenet\img\favicon2.png"
         style="font-size:622.82702637px;font-style:normal;font-variant:normal;font-weight:normal;font-stretch:normal;line-height:125%;letter-spacing:0px;word-spacing:0px;fill:#4d4d4d;fill-opacity:1;stroke:none;font-family:Bauhaus 93;-inkscape-font-specification:Bauhaus 93"
         d="m 2501.375,-1046.4494 0,353.13681 c 0,61.81211 16.6737,110.09726 49.9984,144.90001 33.3246,34.80285 79.8113,52.19383 139.4735,52.19383 l 43.5362,0 0,-159.60542 -8.4504,0 c -24.1875,1.6e-4 -40.3933,-4.25135 -48.5899,-12.71707 -8.197,-8.46536 -12.3031,-25.46131 -12.3028,-50.99254 l 0,-326.91562 -163.665,0 z m 277.3316,148.33816 0,401.89249 150.7821,0 0,-401.89249 -150.7821,0 z"
         id="path3905"
         inkscape:connector-curvature="0" />
      <path
         sodipodi:type="arc"
         style="fill:#80ad1e;fill-opacity:1;stroke:#80ad1e;stroke-width:29.99972153;stroke-linecap:round;stroke-linejoin:round;stroke-miterlimit:4;stroke-opacity:1;stroke-dasharray:none"
         id="path3907"
         sodipodi:cx="-1327.1428"
         sodipodi:cy="422.36218"
         sodipodi:rx="75.714287"
         sodipodi:ry="75.714287"
         d="m -1251.4285,422.36218 c 0,22.25346 -9.7899,43.38011 -26.7681,57.76608 l -48.9462,-57.76608 z"
         sodipodi:start="0"
         sodipodi:end="0.86786135"
         transform="matrix(0.99153144,-1.8821926,2.1729266,0.71184103,3197.8552,-3759.286)"
         inkscape:transform-center-y="226.18566"
         inkscape:transform-center-x="-50.660347"
         inkscape:export-filename="E:\wamp\wamp\www\limenet\img\favicon2.png"
         inkscape:export-xdpi="2.9958887"
         inkscape:export-ydpi="2.9958887" />
    </g>
    <rect
       inkscape:export-ydpi="2.074074"
       inkscape:export-xdpi="2.074074"
       ry="120"
       y="-1087.6378"
       x="483.42859"
       height="708.57141"
       width="694.28571"
       id="rect3931"
       style="fill:none;stroke:none"
       inkscape:export-filename="C:\Users\Marosh\Desktop\g3933.png" />
    <g
       id="g3933"
       transform="translate(-32.406288,-42.936781)"
       inkscape:export-xdpi="2.074074"
       inkscape:export-ydpi="2.074074">
      <rect
         style="fill:#333333;fill-opacity:1;stroke:none"
         id="rect3921"
         width="486.71658"
         height="496.73129"
         x="571.42859"
         y="-875.79773"
         ry="84.123848"
         inkscape:export-xdpi="2.074074"
         inkscape:export-ydpi="2.074074" />
      <path
         style="font-size:622.82702637px;font-style:normal;font-variant:normal;font-weight:normal;font-stretch:normal;line-height:125%;letter-spacing:0px;word-spacing:0px;fill:#f2f2f2;fill-opacity:1;stroke:none;font-family:Bauhaus 93;-inkscape-font-specification:Bauhaus 93"
         d="m 653.30248,-834.97896 0,266.40625 c 0,46.63103 12.5786,83.05732 37.7188,109.3125 25.14,26.25525 60.2096,39.375 105.2187,39.375 l 32.8437,0 0,-120.40625 -6.375,0 c -18.247,1.2e-4 -30.4727,-3.20722 -36.6562,-9.59375 -6.1838,-6.38627 -9.2814,-19.208 -9.2812,-38.46875 l 0,-246.625 -123.4688,0 z m 209.2188,111.90625 0,303.1875 113.75,0 0,-303.1875 -113.75,0 z"
         id="path3925"
         inkscape:connector-curvature="0" />
      <path
         sodipodi:type="arc"
         style="fill:#80ad1e;fill-opacity:1;stroke:#80ad1e;stroke-width:29.99972153;stroke-linecap:round;stroke-linejoin:round;stroke-miterlimit:4;stroke-opacity:1;stroke-dasharray:none"
         id="path3927"
         sodipodi:cx="-1327.1428"
         sodipodi:cy="422.36218"
         sodipodi:rx="75.714287"
         sodipodi:ry="75.714287"
         d="m -1251.4285,422.36218 c 0,22.25346 -9.7899,43.38011 -26.7681,57.76608 l -48.9462,-57.76608 z"
         sodipodi:start="0"
         sodipodi:end="0.86786135"
         transform="matrix(1.1970254,-2.2722753,2.6232637,0.85936943,1385.4016,-4168.6635)"
         inkscape:transform-center-y="273.06246"
         inkscape:transform-center-x="-61.159711"
         inkscape:export-filename="E:\wamp\wamp\www\limenet\img\limenet.png"
         inkscape:export-xdpi="10.412933"
         inkscape:export-ydpi="10.412933" />
    </g>
  </g>
</svg>
